<?xml version="1.0" encoding="utf-8"?>
<!-- Generator: Adobe Illustrator 25.4.0, SVG Export Plug-In . SVG Version: 6.00 Build 0)  -->
<svg version="1.1" id="Layer_1" xmlns="http://www.w3.org/2000/svg" xmlns:xlink="http://www.w3.org/1999/xlink" x="0px" y="0px"
	 viewBox="0 0 1920 1080" style="enable-background:new 0 0 1920 1080;" xml:space="preserve">
<style type="text/css">
	.st0{fill:url(#SVGID_1_);}
</style>
<linearGradient id="SVGID_1_" gradientUnits="userSpaceOnUse" x1="860.0169" y1="454.5" x2="960.5069" y2="454.5">
	<stop  offset="0" style="stop-color:#748CE3"/>
	<stop  offset="1" style="stop-color:#FF2EF1"/>
</linearGradient>
<path class="st0" d="M960.51,441.7c0-20.25-16.42-36.67-36.67-36.67h-36.67l-27.16,25.41l0.19,0.18h-0.19v73.33h36.67
	c9.96,0,18.99-3.98,25.6-10.42l25.68-24.24c0.68-0.6,1.35-1.22,1.98-1.87l0.13-0.13l0,0C956.53,460.7,960.51,451.67,960.51,441.7
	L960.51,441.7z M900.18,418.04h23.67c13.05,0,23.67,10.62,23.67,23.67c0,9.75-5.92,18.13-14.36,21.76
	c-1.8-17.3-15.63-31.02-32.97-32.66V418.04z M887.18,420.37v10.26h-10.97L887.18,420.37z M896.68,490.96h-23.67v-47.33h14.16v34.74
	h30.41C913.61,485.85,905.73,490.96,896.68,490.96z M900.18,465.37v-21.48c10.77,1.6,19.19,10.49,20.09,21.48H900.18z"/>
</svg>


